<svg width="30" height="30" viewBox="0 0 30 30" fill="none" xmlns="http://www.w3.org/2000/svg">
<path d="M23.9628 0.21587C23.8396 0.0782609 23.6635 0 23.4783 0H12.3913C11.3126 0 10.4348 0.877826 10.4348 1.95652V5.21739H1.95652C0.877826 5.21739 0 6.09522 0 7.17391V28.0435C0 29.1222 0.877826 30 1.95652 30H17.6087C18.6874 30 19.5652 29.1222 19.5652 28.0435V24.7826H28.0435C29.1222 24.7826 30 23.9048 30 22.8261V8.47826V7.17391C30 7.01283 29.9407 6.85761 29.8324 6.73761L23.9628 0.21587ZM22.8261 1.30435H23.188L28.6957 7.42435V7.82609H22.8261V1.30435ZM18.2609 13.0435H11.7391V6.52174H12.1213L18.2609 12.6613V13.0435ZM18.2609 28.0435C18.2609 28.4028 17.968 28.6957 17.6087 28.6957H1.95652C1.59717 28.6957 1.30435 28.4028 1.30435 28.0435V7.17391C1.30435 6.81457 1.59717 6.52174 1.95652 6.52174H10.4348V13.6957C10.4348 14.0557 10.727 14.3478 11.087 14.3478H18.2609V28.0435ZM28.0435 23.4783H19.5652V12.3913C19.5652 12.2185 19.4967 12.0522 19.3741 11.9302L12.8524 5.40848C12.7304 5.28587 12.5641 5.21739 12.3913 5.21739H11.7391V1.95652C11.7391 1.59717 12.032 1.30435 12.3913 1.30435H21.5217V8.47826C21.5217 8.83826 21.8139 9.13044 22.1739 9.13044H28.6957V22.8261C28.6957 23.1854 28.4028 23.4783 28.0435 23.4783Z" fill="black"/>
</svg>
