<svg width="40" height="40" viewBox="0 0 40 40" fill="none" xmlns="http://www.w3.org/2000/svg">
<path d="M20 39C30.4934 39 39 30.4934 39 20C39 9.50659 30.4934 1 20 1C9.50659 1 1 9.50659 1 20C1 30.4934 9.50659 39 20 39Z" stroke="black" stroke-width="2"/>
<path fill-rule="evenodd" clip-rule="evenodd" d="M19.9999 11.8018C22.6701 11.8018 22.9863 11.812 24.0408 11.8601C25.0158 11.9046 25.5453 12.0675 25.8977 12.2044C26.3644 12.3858 26.6976 12.6025 27.0475 12.9524C27.3974 13.3023 27.6141 13.6355 27.7955 14.1022C27.9324 14.4547 28.0953 14.9841 28.1398 15.9591C28.188 17.0136 28.1981 17.3298 28.1981 20C28.1981 22.6701 28.188 22.9864 28.1398 24.0408C28.0953 25.0158 27.9324 25.5453 27.7955 25.8977C27.6141 26.3644 27.3974 26.6976 27.0475 27.0475C26.6976 27.3974 26.3644 27.6142 25.8977 27.7955C25.5453 27.9325 25.0158 28.0954 24.0408 28.1399C22.9865 28.188 22.6702 28.1982 19.9999 28.1982C17.3296 28.1982 17.0134 28.188 15.9591 28.1399C14.9841 28.0954 14.4546 27.9325 14.1022 27.7955C13.6355 27.6142 13.3023 27.3974 12.9524 27.0475C12.6025 26.6976 12.3857 26.3644 12.2044 25.8977C12.0674 25.5453 11.9045 25.0158 11.86 24.0409C11.8119 22.9864 11.8018 22.6701 11.8018 20C11.8018 17.3298 11.8119 17.0136 11.86 15.9591C11.9045 14.9841 12.0674 14.4547 12.2044 14.1022C12.3857 13.6355 12.6025 13.3023 12.9524 12.9524C13.3023 12.6025 13.6355 12.3858 14.1022 12.2044C14.4546 12.0675 14.9841 11.9046 15.9591 11.8601C17.0136 11.812 17.3298 11.8018 19.9999 11.8018ZM21.0275 10.0007C22.8279 10.004 23.2087 10.0184 24.1229 10.0601C25.1873 10.1087 25.9142 10.2777 26.5503 10.525C27.2079 10.7805 27.7656 11.1225 28.3215 11.6784C28.8775 12.2343 29.2194 12.792 29.4749 13.4496C29.7222 14.0857 29.8912 14.8126 29.9398 15.877C29.9815 16.7912 29.9959 17.172 29.9992 18.9724L29.9999 19.7179L30 20C30 20.097 29.9999 20.1909 29.9999 20.282L29.9992 21.0275C29.9959 22.8279 29.9815 23.2087 29.9398 24.1229C29.8912 25.1874 29.7222 25.9143 29.4749 26.5504C29.2194 27.208 28.8775 27.7656 28.3215 28.3216C27.7656 28.8775 27.2079 29.2194 26.5503 29.475C25.9142 29.7222 25.1873 29.8912 24.1229 29.9398C23.2087 29.9815 22.8279 29.9959 21.0275 29.9992L20.282 29.9999L19.9999 30C19.9029 30 19.809 29.9999 19.7179 29.9999L18.9724 29.9992C17.172 29.9959 16.7912 29.9815 15.877 29.9398C14.8125 29.8912 14.0856 29.7222 13.4495 29.475C12.7919 29.2194 12.2343 28.8775 11.6783 28.3216C11.1224 27.7656 10.7805 27.2079 10.5249 26.5504C10.2777 25.9143 10.1087 25.1874 10.0601 24.1229C10.0184 23.2087 10.004 22.8279 10.0007 21.0275V18.9724C10.004 17.172 10.0184 16.7912 10.0601 15.877C10.1087 14.8126 10.2777 14.0857 10.5249 13.4496C10.7805 12.792 11.1224 12.2343 11.6783 11.6784C12.2343 11.1225 12.7919 10.7805 13.4495 10.525C14.0856 10.2777 14.8125 10.1087 15.877 10.0601C16.7912 10.0184 17.172 10.004 18.9724 10.0007H21.0275ZM20.0198 14.8809C17.1817 14.8809 14.8809 17.1817 14.8809 20.0198C14.8809 22.8579 17.1817 25.1587 20.0198 25.1587C22.8579 25.1587 25.1587 22.8579 25.1587 20.0198C25.1587 17.1817 22.8579 14.8809 20.0198 14.8809ZM20.0198 16.684C21.8621 16.684 23.3556 18.1775 23.3556 20.0198C23.3556 21.8621 21.8621 23.3556 20.0198 23.3556C18.1775 23.3556 16.684 21.8621 16.684 20.0198C16.684 18.1775 18.1775 16.684 20.0198 16.684ZM25.3174 13.4523C24.6599 13.4523 24.1269 13.9853 24.1269 14.6428C24.1269 15.3003 24.6599 15.8333 25.3174 15.8333C25.9749 15.8333 26.5079 15.3003 26.5079 14.6428C26.5079 13.9853 25.9749 13.4523 25.3174 13.4523Z" fill="black"/>
</svg>
