<svg width="40" height="40" viewBox="0 0 40 40" fill="none" xmlns="http://www.w3.org/2000/svg">
<path d="M20 39C30.4934 39 39 30.4934 39 20C39 9.50659 30.4934 1 20 1C9.50659 1 1 9.50659 1 20C1 30.4934 9.50659 39 20 39Z" stroke="black" stroke-width="2"/>
<path fill-rule="evenodd" clip-rule="evenodd" d="M29.0909 23.2403V16.7599C29.0909 16.7599 29.0909 13.6365 25.9577 13.6365H14.0413C14.0413 13.6365 10.9091 13.6365 10.9091 16.7599V23.2403C10.9091 23.2403 10.9091 26.3637 14.0413 26.3637H25.9577C25.9577 26.3637 29.0909 26.3637 29.0909 23.2403ZM23.5299 20.0092L17.5776 23.4939V16.5234L23.5299 20.0092Z" fill="black"/>
</svg>
