<svg width="40" height="40" viewBox="0 0 40 40" fill="none" xmlns="http://www.w3.org/2000/svg">
<path d="M20 39C30.4934 39 39 30.4934 39 20C39 9.50659 30.4934 1 20 1C9.50659 1 1 9.50659 1 20C1 30.4934 9.50659 39 20 39Z" stroke="black" stroke-width="2"/>
<path fill-rule="evenodd" clip-rule="evenodd" d="M27.7511 15.3143C28.5601 14.8038 29.1809 13.9942 29.4722 13.0298C28.7147 13.5038 27.8777 13.8465 26.9846 14.032C26.2719 13.2284 25.2534 12.7273 24.1261 12.7273C21.9634 12.7273 20.2109 14.5769 20.2109 16.8578C20.2109 17.1816 20.2433 17.4972 20.3106 17.7985C17.0565 17.626 14.1711 15.9832 12.2381 13.4825C11.9008 14.0947 11.7081 14.8038 11.7081 15.5601C11.7081 16.9925 12.3995 18.2571 13.4505 18.9993C12.8085 18.978 12.2045 18.7901 11.6756 18.4828V18.5336C11.6756 20.5357 13.0247 22.2056 14.8187 22.5838C14.4893 22.6807 14.1442 22.7291 13.7856 22.7291C13.5335 22.7291 13.2869 22.7043 13.0494 22.6559C13.5469 24.2962 14.9935 25.4923 16.708 25.5242C15.3667 26.6327 13.678 27.2922 11.8437 27.2922C11.5277 27.2922 11.215 27.2745 10.9091 27.2355C12.6426 28.4067 14.7011 29.0909 16.9131 29.0909C24.1182 29.0909 28.0559 22.7965 28.0559 17.3376C28.0559 17.158 28.0536 16.9795 28.0458 16.8034C28.8111 16.2208 29.4767 15.4928 30 14.6643C29.2974 14.9929 28.5422 15.215 27.7511 15.3143Z" fill="black"/>
</svg>
