<svg width="16" height="16" viewBox="0 0 16 16" fill="none" xmlns="http://www.w3.org/2000/svg">
<path d="M10.5 8C10.224 8 10 8.22402 10 8.5C10 8.77598 10.224 9 10.5 9C10.776 9 11 8.77598 11 8.5C11 8.22402 10.776 8 10.5 8Z" fill="black"/>
<path fill-rule="evenodd" clip-rule="evenodd" d="M3.19273 11.5558L0.0677285 15.4933C-0.00685643 15.5872 -0.0210166 15.7155 0.0311074 15.8234C0.0832314 15.9314 0.192606 16 0.312479 16H15.6875C15.8073 16 15.9167 15.9314 15.9688 15.8234C16.0211 15.7155 16.0068 15.5872 15.9322 15.4933L12.8072 11.5558C12.748 11.4811 12.6578 11.4375 12.5625 11.4375H9.82505L12.1621 7.77197C12.7103 6.95007 13 5.99158 13 5C13 2.24304 10.7571 0 7.99997 0C5.2429 0 2.99998 2.24304 2.99998 5C2.99998 5.99158 3.28965 6.94995 3.83787 7.77197L6.1749 11.4375H3.43748C3.34214 11.4375 3.25205 11.4811 3.19273 11.5558ZM2.02598 14.0312H3.9155L2.8491 15.375H0.959451L2.02598 14.0312ZM7.43015 13.4062L6.57346 12.0625H6.27598L5.20945 13.4062H7.43015ZM9.42661 12.0625H9.72409L10.7905 13.4062H8.56992L9.42661 12.0625ZM12.353 15.375L11.2866 14.0312H4.71348L3.64695 15.375H12.353ZM13.151 15.375L12.0844 14.0312H13.9741L15.0405 15.375H13.151ZM11.5885 13.4062H13.478L12.4116 12.0625H10.5219L11.5885 13.4062ZM4.3596 7.42773C3.879 6.70825 3.62498 5.86877 3.62498 5C3.62498 2.58765 5.58762 0.625 7.99997 0.625C10.4123 0.625 12.375 2.58765 12.375 5C12.375 5.86877 12.1209 6.70825 11.6405 7.42773L11.638 7.4314L11.6368 7.43323L7.99997 13.1375L4.36314 7.43323L4.3596 7.42773ZM4.4116 13.4062L5.478 12.0625H3.58848L2.52195 13.4062H4.4116Z" fill="black"/>
<path fill-rule="evenodd" clip-rule="evenodd" d="M11 4.5C11 5.88857 9.87246 7 8.5 7C7.12793 7 6 5.88896 6 4.5C6 3.12148 7.12148 2 8.5 2C9.87852 2 11 3.12148 11 4.5ZM10.5 4.5C10.5 3.39717 9.60283 2.5 8.5 2.5C7.39717 2.5 6.5 3.39717 6.5 4.5C6.5 5.61309 7.4041 6.5 8.5 6.5C9.59561 6.5 10.5 5.61309 10.5 4.5Z" fill="black"/>
<path d="M9.83008 9.05302C9.66413 8.94783 9.44827 9.00403 9.34815 9.17853L8.05046 11.4406C7.95034 11.6151 8.00383 11.8418 8.16992 11.947C8.33669 12.0526 8.55215 11.9952 8.65185 11.8214L9.94954 9.55938C10.0497 9.38488 9.99617 9.15821 9.83008 9.05302Z" fill="black"/>
</svg>
