<svg width="16" height="16" viewBox="0 0 16 16" fill="none" xmlns="http://www.w3.org/2000/svg">
<path d="M8.36644 7.99839L15.9245 0.440374C16.0252 0.339619 16.0252 0.176296 15.9245 0.0755418C15.8237 -0.0251806 15.6604 -0.0251806 15.5596 0.0755418L8.00161 7.63356L0.443598 0.0755418C0.341102 -0.023439 0.177779 -0.0206008 0.0787657 0.0818954C-0.0177962 0.181876 -0.0177962 0.340393 0.0787657 0.440374L7.63678 7.99839L0.0787657 15.5564C-0.0237305 15.6554 -0.0265687 15.8187 0.0724443 15.9212C0.171457 16.0237 0.33478 16.0266 0.437277 15.9276C0.439437 15.9255 0.441534 15.9234 0.443598 15.9212L8.00161 8.36322L15.5596 15.9212C15.6621 16.0202 15.8254 16.0174 15.9245 15.9149C16.0211 15.8149 16.0211 15.6564 15.9245 15.5564L8.36644 7.99839Z" fill="black"/>
</svg>
